<svg xmlns="http://www.w3.org/2000/svg" width="169.71" height="169.53">
  <circle cx="84.86" cy="84.76" r="83.47" fill="#1E88C9"/>
  <path fill="#FFF" d="M91.38 148.14a61.75 61.75 0 0 1-48.83-16.33 61.72 61.72 0 0 1-19.8-43.23C22.26 75 25.58 63.96 33.51 52.73l.67-.93c0 1.18.05 2.73.2 4.22.65 6.11 2.4 9.93 4.43 14.35.43.93.87 1.9 1.32 2.92 1.66 3.79 3.38 7.7 3.73 11.96.2 2.5-.04 5.5-.28 8.42-.19 2.47-.4 5-.32 7.1a37 37 0 0 0 40.82 35.43c19.23-2.02 33.32-19.82 32.62-39.16a60.8 60.8 0 0 1 .72-8.61c.98-4.59 3.08-8.9 5.11-13.06 3.59-7.32 4.42-14.53 2.8-25.06-.68-4.48-.52-7.5-.33-9.04l1.87 2.05c11.02 11.34 19.55 25.6 20.1 40.78 1.16 32.52-23.25 60.65-55.59 64.04zm-58.87-88.9l-.86 1.64c-4.22 8.48-6.09 17.5-5.72 27.58A58.55 58.55 0 0 0 44.7 129.5 58.55 58.55 0 0 0 91.04 145c30.68-3.22 53.85-29.91 52.74-60.77-.45-12.34-7.33-24.86-14.83-34.63L127 47.28l.9 2.86c3.19 10.61 1.4 18.63-2.5 26.62-2.05 4.19-3.97 8.13-4.86 12.33-.3 1.37-.7 6.35-.65 7.84.75 21-14.59 40.24-35.47 42.43a40.19 40.19 0 0 1-44.32-38.47 64.4 64.4 0 0 1 .33-7.46c.22-2.8.45-5.69.27-7.93-.3-3.71-1.84-7.22-3.47-10.93-.35-.8-.71-1.57-1.08-2.35-1.55-3.34-3.17-6.8-3.34-11.1l-.3-1.88z"/>
  <path fill="#FFF" d="M131.99 83.67a1.4 1.4 0 0 1-.57-2.68c9.6-4.31 9.75-9.58 9.75-9.64a1.4 1.4 0 0 1 1.37-1.43c.77.03 1.42.6 1.44 1.37 0 .29.03 7.12-11.42 12.26-.18.08-.38.12-.57.12zm-.36 11.93a1.4 1.4 0 0 1-.26-2.78c9.75-1.82 12.5-9.23 12.61-9.54a1.4 1.4 0 1 1 2.65.93c-.13.37-3.35 9.23-14.75 11.37-.08.02-.17.03-.25.03zm-.85 12.22a1.4 1.4 0 0 1-.02-2.8c10.48-.1 12.25-8.94 12.32-9.32a1.4 1.4 0 1 1 2.76.52c-.02.11-2.3 11.48-15.05 11.6h-.01zM32.7 85.51c-.3 0-.6-.1-.86-.29-7.22-5.55-7.59-11.6-7.6-11.85a1.4 1.4 0 0 1 2.8-.14c.01.22.4 5.06 6.51 9.77a1.4 1.4 0 0 1-.85 2.51zm-1.6 7.86a1.4 1.4 0 0 1-.57-.12c-8.1-3.6-7.55-10.5-7.52-10.8a1.4 1.4 0 0 1 2.79.26c-.02.23-.32 5.22 5.87 7.98a1.4 1.4 0 0 1-.57 2.68zm-1.46 8.8c-.08 0-.17 0-.26-.02-6.02-1.1-6.48-9.95-6.5-10.33a1.4 1.4 0 1 1 2.8-.12c.01.07.44 7 4.21 7.7a1.4 1.4 0 0 1-.25 2.77zm97.94 18.31h-.33a1.4 1.4 0 0 1 .02-2.81h.02c10.31.13 11.78-7.4 11.84-7.72a1.4 1.4 0 0 1 1.62-1.14 1.4 1.4 0 0 1 1.14 1.61c-.01.1-1.84 10.06-14.31 10.06zm-54.02 8.81l-.25-.04-.25-.06-.25-.06a7.6 7.6 0 0 1-3.71-2.36 11.77 11.77 0 0 1-2.26-4.06 17.67 17.67 0 0 1-.89-5.24c-.04-1.89.17-3.88.68-5.88a21.28 21.28 0 0 1 2.03-5.13 16.72 16.72 0 0 1 2.97-3.91 11.31 11.31 0 0 1 3.58-2.37 7.52 7.52 0 0 1 4.06-.48l.25.05a4.9 4.9 0 0 1 .5.13 7.56 7.56 0 0 1 3.49 2.26 11.72 11.72 0 0 1 2.3 4.06c.54 1.59.85 3.38.9 5.28a21.87 21.87 0 0 1-2.74 11.09 16.57 16.57 0 0 1-3.01 3.9 11.19 11.19 0 0 1-3.6 2.35 7.4 7.4 0 0 1-3.8.47m5.88-32.78a10 10 0 0 0-4.85.58 14.04 14.04 0 0 0-4.5 2.82 19.7 19.7 0 0 0-3.72 4.69 25.02 25.02 0 0 0-3.25 13.3c.08 2.29.5 4.45 1.22 6.39a14.8 14.8 0 0 0 2.97 4.97 10.22 10.22 0 0 0 5.83 3.18c1.62.24 3.26.05 4.85-.51 1.6-.57 3.13-1.52 4.54-2.78s2.7-2.84 3.77-4.68a24.96 24.96 0 0 0 3.31-13.42 21 21 0 0 0-1.26-6.45 14.67 14.67 0 0 0-3.02-4.98 10.15 10.15 0 0 0-5.2-3l-.34-.06a5.82 5.82 0 0 0-.35-.06m9.36-4.37a35.67 35.67 0 0 1-3.13-.55 43.63 43.63 0 0 1-3.35-.85c-1.83-.53-3.43-1.1-4.82-1.67s-2.56-1.14-3.55-1.68-1.77-1.07-2.38-1.53a8.26 8.26 0 0 1-1.3-1.18l-.45-.55.65-.23c.26-.1.6-.18 1.03-.24a12 12 0 0 1 1.5-.14 26.46 26.46 0 0 1 5.88.47 39.57 39.57 0 0 1 3.24.69 47.35 47.35 0 0 1 6.53 2.1c1.4.57 2.6 1.15 3.6 1.7 1 .56 1.8 1.08 2.42 1.55s1.05.88 1.32 1.2l.47.56-.67.22c-.27.1-.62.18-1.05.24-.43.07-.94.12-1.53.14-.58.02-1.25.02-1.98-.02a35.1 35.1 0 0 1-2.43-.23M77.6 80.58a31.93 31.93 0 0 0-3.34-.26c-1.12-.02-2.2.03-3.2.2-.98.18-1.85.48-2.53.93a3.2 3.2 0 0 0-1.38 1.9c-.3 1.16.09 2.29.91 3.35a13.5 13.5 0 0 0 3.61 2.97c1.5.91 3.23 1.73 4.95 2.44a48.68 48.68 0 0 0 14.02 3.43 29.18 29.18 0 0 0 2 .07c.96 0 1.82-.08 2.57-.2.75-.14 1.4-.33 1.95-.59.55-.25 1-.57 1.34-.95.33-.37.57-.81.7-1.3.3-1.18-.1-2.32-.95-3.4a13.87 13.87 0 0 0-3.7-3 36.49 36.49 0 0 0-5.02-2.45 51.96 51.96 0 0 0-5.82-1.93 60.05 60.05 0 0 0-3.68-.82c-.77-.14-1.59-.28-2.42-.39"/>
</svg>
